<svg width="135" height="32" viewBox="0 0 135 32" fill="none" xmlns="http://www.w3.org/2000/svg">
    <g>
        <path d="M8.87511 21.8758L7.39554 20.9615L7.96119 15.7363L1.73438 19.4529C2.56615 20.9965 3.87817 22.2417 5.48092 23.0084C7.08368 23.7752 8.89419 24.0239 10.6509 23.7186C12.4077 23.4134 14.0197 22.5699 15.2542 21.3101C16.4887 20.0503 17.2818 18.4394 17.5188 16.71L8.87511 21.8758Z" fill="white"/>
        <path fill-rule="evenodd" clip-rule="evenodd" d="M10.1107 14.0111L8.63109 13.0968L1.02756 17.6385C0.729731 16.5489 0.664158 15.411 0.834913 14.2955C1.00567 13.1801 1.4091 12.1108 2.02017 11.1542C2.63124 10.1976 3.43688 9.37412 4.38708 8.73479C5.33728 8.09545 6.41174 7.65398 7.54374 7.43776C8.67574 7.22155 9.84111 7.23522 10.9675 7.47792C12.0939 7.72063 13.1572 8.18718 14.0914 8.84862C15.0257 9.51006 15.8109 10.3522 16.3983 11.3229C16.9857 12.2936 17.3628 13.3719 17.5062 14.4911L9.54501 19.2385L10.1107 14.0111ZM10.8013 11.181C10.8013 11.8236 10.2687 12.3444 9.61161 12.3444C8.95454 12.3444 8.42188 11.8236 8.42188 11.181C8.42188 10.5385 8.95454 10.0176 9.61161 10.0176C10.2687 10.0176 10.8013 10.5385 10.8013 11.181Z" fill="white"/>
        <path d="M21.7891 23.1991L23.8787 23.1694V8.72827L21.7891 8.75798V23.1991ZM31.7837 13.1648C30.8488 13.1648 29.257 13.5717 28.5511 14.6757V13.3706H26.5784V23.1991H28.5511V17.8803C28.5511 15.942 30.0471 15.0734 31.529 15.0734C32.9314 15.0734 33.8664 16.102 33.8664 17.6311V23.1991H35.8368V17.5283C35.8368 16.1317 35.4441 14.9888 34.6681 14.2254C33.9669 13.5306 32.9688 13.1648 31.7837 13.1648ZM41.7691 20.6711L38.7515 13.3728H36.6408L40.8154 23.1991H42.704L46.8997 13.3728H44.768L41.7691 20.6711ZM78.5853 13.1648C75.5467 13.1648 73.3379 15.3043 73.3379 18.2551C73.3379 21.206 75.5958 23.4071 78.5853 23.4071C79.2821 23.4244 79.9752 23.3029 80.6225 23.0501C81.2698 22.7974 81.8578 22.4185 82.3508 21.9367C82.8438 21.4548 83.2314 20.88 83.4902 20.2471C83.749 19.6142 83.8735 18.9365 83.8562 18.2551C83.8562 15.3043 81.6497 13.1648 78.5853 13.1648ZM78.5853 21.5831C76.7411 21.5831 75.3387 20.1523 75.3387 18.2551C75.3387 16.3923 76.7411 14.9888 78.5923 14.9888C79.0304 14.9828 79.4652 15.0635 79.8705 15.2261C80.2758 15.3888 80.6433 15.6299 80.9508 15.9351C81.2583 16.2403 81.4994 16.6031 81.6597 17.0019C81.82 17.4006 81.8961 17.8269 81.8834 18.2551C81.8834 20.1523 80.4646 21.5831 78.5853 21.5831ZM90.6673 13.1648C89.2111 13.1648 87.8788 13.7843 87.201 14.7648V13.3706H85.2282V27.9168H87.201V21.8277C87.8741 22.8174 89.1574 23.4003 90.6883 23.4003C93.5937 23.4003 95.702 21.2517 95.702 18.2894C95.702 15.3271 93.5844 13.1648 90.6673 13.1648ZM90.4967 21.5831C90.0598 21.5844 89.627 21.5005 89.2236 21.3362C88.8203 21.172 88.4545 20.9307 88.1476 20.6266C87.8407 20.3225 87.5989 19.9615 87.4364 19.5649C87.2738 19.1684 87.1938 18.744 87.201 18.3168C87.201 16.4197 88.6174 14.9888 90.4967 14.9888C92.2988 14.9888 93.7083 16.4517 93.7083 18.3168C93.7083 20.182 92.3269 21.5831 90.4967 21.5831ZM116.278 14.742C115.605 13.7523 114.322 13.1694 112.791 13.1694C109.885 13.1694 107.777 15.318 107.777 18.2803C107.777 21.2426 109.895 23.4117 112.812 23.4117C114.268 23.4117 115.6 22.7923 116.278 21.8117V23.1991H118.251V8.07227H116.278V14.742ZM112.971 21.5831C111.18 21.5831 109.78 20.1203 109.78 18.2551C109.78 16.39 111.143 14.9888 112.971 14.9888C113.409 14.9861 113.844 15.0688 114.249 15.2323C114.654 15.3957 115.022 15.6366 115.331 15.9407C115.639 16.2449 115.883 16.6063 116.048 17.0037C116.212 17.4011 116.293 17.8265 116.287 18.2551C116.278 19.8688 115.116 21.5831 112.971 21.5831ZM120.747 13.3728H122.72V23.1991H120.747V13.3728ZM134.786 13.3706H132.813V14.5134C132.112 13.6586 130.903 13.1603 129.491 13.1603H129.332C126.427 13.1603 124.319 15.3088 124.319 18.2711C124.319 21.2334 126.436 23.4026 129.353 23.4026H129.519C130.863 23.4026 132.105 22.8723 132.82 22.0311V23.1991H134.942V13.3706H134.786ZM129.58 21.5763C127.829 21.5306 126.471 20.0906 126.471 18.2528C126.471 16.4151 127.804 15.0323 129.58 14.9911C131.392 15.0224 132.838 16.4805 132.813 18.2528C132.813 19.846 131.67 21.5328 129.58 21.5786V21.5763ZM62.0904 17.1923C61.0596 16.934 60.3303 16.7031 60.3303 16.0746C60.3303 15.3683 61.0596 14.8746 62.1067 14.8746C62.8662 14.8894 63.5996 15.1481 64.194 15.6106L64.2431 15.6471L65.3019 14.2117L65.2552 14.1751C64.3219 13.4644 63.1654 13.092 61.9828 13.1214C60.2041 13.1214 58.2898 14.0791 58.2898 16.1774C58.2898 17.6403 59.5379 18.3534 60.5827 18.6917C60.9334 18.806 61.284 18.8951 61.6392 18.982C62.7308 19.2563 63.6751 19.494 63.6751 20.326C63.6751 20.9088 63.0744 21.526 61.9618 21.526C60.9077 21.4974 59.8924 21.1303 59.0728 20.4814L59.0214 20.4448L57.9649 21.9214L58.0093 21.9557C59.1444 22.8366 60.5573 23.3044 62.0062 23.2791C63.806 23.2791 65.7203 22.23 65.7203 20.2848C65.7203 18.3397 63.8855 17.6426 62.0904 17.1923ZM106.494 18.118C106.494 15.1854 104.556 13.142 101.751 13.142C98.916 13.142 96.8591 15.238 96.8591 18.1226C96.8401 18.8136 96.9629 19.5013 97.2203 20.1451C97.4776 20.7889 97.8642 21.3758 98.3573 21.8711C99.2405 22.712 100.427 23.1778 101.66 23.1671H101.754C103.49 23.1374 104.624 22.8563 106.001 21.4026L106.043 21.3591L104.675 20.086L104.633 20.1317C104.287 20.5288 103.856 20.8459 103.37 21.0601C102.883 21.2743 102.355 21.3804 101.821 21.3706C100.297 21.3706 99.0959 20.278 98.8131 18.6437L106.426 18.6277H106.482V18.5728C106.49 18.4838 106.49 18.3944 106.482 18.3054C106.496 18.2688 106.494 18.2186 106.494 18.118ZM99.1146 17.126C99.3741 15.7066 100.325 14.9248 101.8 14.9248C103.228 14.9248 104.201 15.7454 104.416 17.126H99.1146ZM56.8733 18.118C56.8733 15.1854 54.9216 13.142 52.1354 13.142C49.3002 13.142 47.2433 15.238 47.2433 18.1226C47.2243 18.8136 47.3471 19.5013 47.6045 20.1451C47.8618 20.7889 48.2484 21.3758 48.7415 21.8711C49.6247 22.712 50.8117 23.1778 52.0443 23.1671H52.1354C53.8744 23.1374 55.0081 22.8563 56.3848 21.4026L56.4269 21.3591L55.0595 20.086L55.0174 20.1317C54.6709 20.5297 54.2382 20.8473 53.7506 21.0616C53.2631 21.2758 52.7329 21.3814 52.1985 21.3706C50.6722 21.3706 49.4731 20.278 49.1903 18.6437L56.8008 18.6277H56.8593V18.5728C56.8655 18.4838 56.8655 18.3944 56.8593 18.3054C56.8733 18.2688 56.8733 18.2186 56.8733 18.118ZM49.4872 17.126C49.7489 15.7066 50.7003 14.9248 52.1751 14.9248C53.6033 14.9248 54.5757 15.7454 54.7907 17.126H49.4872ZM72.1832 21.158C71.912 21.2289 71.6318 21.262 71.3511 21.2563C71.1261 21.2664 70.9015 21.2311 70.6911 21.1524C70.4808 21.0738 70.2893 20.9535 70.1287 20.7991C69.9136 20.5523 69.8692 20.1728 69.8692 19.6814V15.0506H72.6741V13.3706H69.8692V10.1888H67.8941V13.3706H66.8096V15.0506H67.8941V19.5808C67.8941 20.6711 68.1419 21.4734 68.6514 22.0311C68.984 22.3901 69.3931 22.6732 69.85 22.8605C70.3068 23.0477 70.8001 23.1344 71.295 23.1146C71.7905 23.1191 72.2844 23.0528 72.7606 22.918L72.819 22.8997L72.2417 21.142L72.1832 21.158ZM121.734 8.66427C121.566 8.66393 121.4 8.69632 121.245 8.75952C121.091 8.82272 120.95 8.91547 120.833 9.03234C120.715 9.1492 120.623 9.28783 120.561 9.4401C120.499 9.59237 120.468 9.75523 120.471 9.91912C120.469 10.0819 120.5 10.2435 120.562 10.3944C120.625 10.5452 120.718 10.6823 120.835 10.7974C120.953 10.9125 121.093 11.0033 121.248 11.0645C121.402 11.1256 121.567 11.1559 121.734 11.1534C121.902 11.1571 122.069 11.1278 122.225 11.0674C122.381 11.007 122.523 10.9166 122.643 10.8016C122.763 10.6866 122.859 10.5493 122.924 10.3977C122.989 10.2462 123.022 10.0834 123.021 9.91912C123.022 9.75378 122.989 9.58995 122.925 9.43713C122.86 9.28431 122.765 9.14553 122.645 9.02883C122.526 8.91212 122.383 8.81981 122.227 8.75723C122.07 8.69465 121.903 8.66306 121.734 8.66427Z" fill="white"/>
    </g>
    <defs>
        <clipPath id="clip0_10796_20405">
            <rect width="134.4" height="20.8" fill="white" transform="translate(0.539062 7.19922)"/>
        </clipPath>
    </defs>
</svg>