<svg xmlns="http://www.w3.org/2000/svg" viewBox="0 0 640 480"><path fill="#012169" d="M0 0h640v480H0z"/><path fill="#49497d" d="m484 180 2 2z"/><path fill="#0e0e6e" d="m486 180 2 2z"/><path fill="#262678" d="m480 182 2 2z"/><path fill="#808067" d="m482 182 2 2z"/><path fill="#58587b" d="m488 182 2 2z"/><path fill="#0e0e6e" d="m413 185 2 2z"/><path fill="#1b1b74" d="m476 185 2 2z"/><path fill="#6e6c70" d="m478 185 2 2z"/><path fill="#cc3" d="M417 188c0 53-6 112 33 153 8 8 23 28 36 27 14-1 32-21 40-31 34-45 28-98 29-150-15 7-23 9-36 9-10 1-25-6-35-10-6 4-14 9-30 9-18 1-24-2-37-7z"/><path fill="#99994e" d="m490 185 2 2z"/><path fill="#49497d" d="m492 185 2 2z"/><path fill="#0e0e6e" d="m555 185 2 2z"/><path fill="#a4a43d" d="m415 187 2 2z"/><path fill="#6e6c70" d="m417 187 2 2z"/><path fill="#3a3a7c" d="m419 187 2 2z"/><path fill="#1b1b74" d="m472 187 2 2z"/><path fill="#6e6c70" d="m474 187 2 2z"/><path fill="#a4a43d" d="m476 187 2 2z"/><path fill="#d0d045" d="m484 187 2 2z"/><path fill="#a4a43d" d="m492 187 2 2z"/><path fill="#8d8d5b" d="m494 187 2 2z"/><path fill="#3a3a7c" d="m497 187 2 2z"/><path fill="#262678" d="m549 187 2 2z"/><path fill="#53527c" d="m551 187 2 2z"/><path fill="#8d8d5b" d="m553 187 2 2z"/><path fill="#737370" d="m423 189 2 2z"/><path fill="#53527c" d="m425 189 2 2z"/><path fill="#1b1b74" d="m427 189 2 2z"/><path fill="#262678" d="m468 189 2 2z"/><path fill="#6e6c70" d="m470 189 2 2z"/><path fill="#a4a43d" d="m472 189 2 2z"/><path fill="#e5e59d" d="m482 189 2 2z"/><path fill="#fff" d="M421 194c-1 27 0 58 4 88 5 15 4 24 11 33l99-1c6-10 11-24 11-30 6-30 6-63 6-92a62 62 0 0 1-36 7 69 69 0 0 1-30-9c-10 6-13 8-29 9-12 1-21 2-36-5z"/><path fill="#f2f1d7" d="m486 189 2 2z"/><path fill="#d9d868" d="m488 189 2 2z"/><path fill="#a4a43d" d="m497 189 2 2z"/><path fill="#99994e" d="m499 189 2 2z"/><path fill="#49497d" d="m501 189 2 2z"/><path fill="#0e0e6e" d="m503 189 2 2z"/><path fill="#3a3a7c" d="m543 189 2 2z"/><path fill="#667" d="m545 189 2 2z"/><path fill="#99994e" d="m547 189 2 2z"/><path fill="#a4a43d" d="m549 189 2 2-2-2m-122 2 2 2z"/><path fill="#99994e" d="m430 191 2 2z"/><path fill="#6e6c70" d="m432 191 2 2z"/><path fill="#49497d" d="m434 191 2 2z"/><path fill="#1b1b74" d="m436 191 2 2-2-2m26 0 2 2z"/><path fill="#53527c" d="m464 191 2 2-2-2z"/><path fill="#8d8d5b" d="m466 191 2 2z"/><path fill="#a4a43d" d="m468 191 2 2z"/><path fill="#e5e59d" d="m478 191 2 2z"/><path fill="#fbfaf2" d="m480 191 2 2z"/><path fill="#f2f1d2" d="m490 191 2 2z"/><path fill="#d9d868" d="m492 191 2 2z"/><path fill="#a4a43d" d="m503 191 2 2z"/><path fill="#6e6c70" d="m505 191 2 2z"/><path fill="#3a3a7c" d="m507 191 2 2z"/><path fill="#0e0e6e" d="m533 191 2 2z"/><path fill="#32327b" d="m535 191 2 2z"/><path fill="#58587b" d="m537 191 2 2z"/><path fill="#808067" d="m539 191 2 2z"/><path fill="#a4a43d" d="m543 191 1 1z"/><path fill="#dddc7a" d="m419 193 2 2z"/><path fill="#d0d045" d="m421 193 2 2z"/><path fill="#a4a43d" d="m437 193 1 1z"/><path fill="#808067" d="m440 193 2 2z"/><path fill="#667" d="m442 193 2 2z"/><path fill="#58587b" d="m444 193 2 2z"/><path fill="#49497d" d="m446 193 2 2z"/><path fill="#737370" d="m458 193 2 2z"/><path fill="#99994e" d="m460 193 2 2z"/><path fill="#a4a43d" d="m462 193 2 2z"/><path fill="#e5e59d" d="m474 193 2 2z"/><path fill="#fbfaf2" d="m476 193 2 2z"/><path fill="#f2f1d2" d="m494 193 2 2z"/><path fill="#d9d868" d="m497 193 2 2z"/><path fill="#a4a43d" d="m508 193 1 1-1-1z"/><path fill="#808067" d="m511 193 2 2z"/><path fill="#667" d="m513 193 2 2z"/><path fill="#58587b" d="m515 193 2 2z"/><path fill="#3a3a7c" d="m517 193 2 2z"/><path fill="#58587b" d="m526 193 2 1z"/><path fill="#737370" d="m529 193 2 2z"/><path fill="#99994e" d="m531 193 2 2-2-2z"/><path fill="#a4a43d" d="m533 193 2 2z"/><path fill="#dddc7a" d="m549 193 2 2z"/><path fill="#d0d045" d="m551 193 2 2z"/><path fill="#f2f1d7" d="m423 195 2 2z"/><path fill="#e0dea1" d="m425 195 2 2z"/><path fill="#dddc7a" d="m427 195 2 2z"/><path fill="#d9d868" d="m468 195 2 2z"/><path fill="#e5e3af" d="m470 195 2 2z"/><path fill="#f6f6e4" d="m499 195 2 2z"/><path fill="#e1e18c" d="m501 195 2 2z"/><path fill="#d4d456" d="m541 195 2 2z"/><path fill="#e1e18c" d="m543 195 2 2z"/><path fill="#eeedc1" d="m545 195 2 2z"/><path fill="#f2f1d2" d="m432 197 2 2z"/><path fill="#e0dea1" d="m434 197 2 2z"/><path fill="#dddc7a" d="m436 197 2 2z"/><path fill="#d0d045" d="m438 197 2 2z"/><path fill="#dddc7a" d="m462 197 2 2z"/><path fill="#e5e3af" d="m464 197 2 2-2-2z"/><path fill="#f6f6e4" d="m466 197 2 2z"/><path fill="#eeedc1" d="m505 197 2 2z"/><path fill="#e1e18c" d="m507 197 2 2z"/><path fill="#d4d456" d="m509 197 2 2z"/><path fill="#d9d868" d="m533 197 2 2z"/><path fill="#e1e18c" d="m535 197 2 2z"/><path fill="#eeedc1" d="m537 197 2 2z"/><path fill="#f6f6e4" d="m539 197 2 2z"/><path fill="#f2f1d7" d="m442 199 2 2-2-2z"/><path fill="#f2f1d2" d="m444 199 2 2-2-2z"/><path fill="#eeedc1" d="m446 199 2 2-2-2z"/><path fill="#f2f1d2" d="m455 199 1 1z"/><path fill="#fbfaf2" d="m458 199 2 2-2-2z"/><path fill="#fef8f1" d="m468 199 4 4v-4h-4z"/><path fill="#f2f1d7" d="m513 199 2 2-2-2z"/><path fill="#f2f1d2" d="m515 199 2 2-2-2z"/><path fill="#e5e3af" d="m517 199 2 2-2-2z"/><path fill="#e5e59d" d="m520 199 2 1-2-1z"/><path fill="#e0dea1" d="m523 199 2 2-2-2z"/><path fill="#f2f1d2" d="m526 199 2 1z"/><path fill="#fbfaf2" d="m529 199 2 2-2-2z"/><path fill="#fef8f1" d="m464 201 2 2-2-2z"/><path fill="#fbbe66" d="m466 201 2 2z"/><path fill="#fbc477" d="m464 203 2 2-2-2z"/><path fill="#fcb144" d="m468 203 2 2z"/><path fill="#fe9f11" d="m464 205 2 2-2-2z"/><path fill="#fea522" d="m468 205 2 2z"/><path fill="#fae3c9" d="m462 207 2 2-2-2m8 0 2 2z"/><path fill="#fbead6" d="m480 207 2 2z"/><path fill="#f9d6aa" d="m482 207 2 2z"/><path fill="#fae3c9" d="m490 207 2 2z"/><path fill="#fef8f1" d="m492 207 2 2z"/><path fill="#f9d099" d="m462 209 2 2z"/><path fill="#fdab33" d="m470 209 2 2z"/><path fill="#fcf1e4" d="m474 209 2 2z"/><path fill="#fbc477" d="m476 209 2 2z"/><path fill="#fea522" d="m478 209 2 2z"/><path fill="#fcb755" d="m494 209 2 2z"/><path fill="#f9d6aa" d="m497 209 2 2z"/><path fill="#faca88" d="m462 211 2 2z"/><path fill="#fea522" d="m472 211 2 2-2-2m27 0 2 2z"/><path fill="#f8dcbb" d="m501 211 2 2z"/><path fill="#f6f6e4" d="m419 213 2 2z"/><path fill="#fbc477" d="m462 213 2 2z"/><path fill="#fbbe66" d="m503 213 2 2z"/><path fill="#f8dcbb" d="m505 213 2 2z"/><path fill="#faca88" d="m462 215 2 2z"/><path fill="#fcb755" d="m509 215 2 2z"/><path fill="#f8dcbb" d="m511 215 2 2z"/><path fill="#fef8f1" d="m460 217 2 2z"/><path fill="#fe9f11" d="m462 217 2 2z"/><path fill="#fdab33" d="m519 217 2 2z"/><path fill="#fcb144" d="m521 217 2 2z"/><path fill="#fbc477" d="m523 217 2 2z"/><path fill="#f9d6aa" d="m525 217 4 4z"/><path fill="#fef8f1" d="m527 217 2 2z"/><path fill="#fcb144" d="m460 219 2 2z"/><path fill="#fdab33" d="m488 219 2 2z"/><path fill="#fbc477" d="m490 219 2 2zm8 0 2 2-2-2z"/><path fill="#fea522" d="m501 219 2 2z"/><path fill="#fae3c9" d="m458 221 2 2z"/><path fill="#fcb144" d="m484 221 2 2z"/><path fill="#fae3c9" d="m486 221 2 2z"/><path fill="#f8dcbb" d="m503 221 2 2z"/><path fill="#fdab33" d="m505 221 2 2z"/><path fill="#fe9f11" d="m517 221 2 2z"/><path fill="#fcb755" d="m519 221 2 2z"/><path fill="#f9d099" d="m521 221 2 2z"/><path fill="#fbead6" d="m523 221 2 2z"/><path fill="#fcb144" d="m458 223 2 2z"/><path fill="#fbbe66" d="m482 223 2 2z"/><path fill="#f9d099" d="m507 223 2 2z"/><path fill="#fbead6" d="m515 223 2 2z"/><path fill="#fcf1e4" d="m456 225 2 2z"/><path fill="#fbbe66" d="m480 225 2 2z"/><path fill="#f9d099" d="m509 225 2 2z"/><path fill="#fae3c9" d="m515 225 2 2z"/><path fill="#fbc477" d="m456 227 2 2z"/><path fill="#fcb144" d="m478 227 2 2-2-2m33 0 2 2z"/><path fill="#fbbe66" d="m515 227 2 2z"/><path fill="#f6f6e4" d="m419 229 2 2z"/><path fill="#fea522" d="m456 229 2 2z"/><path fill="#fbead6" d="m478 229 2 2z"/><path fill="#fcf1e4" d="m511 229 2 2z"/><path fill="#fef8f1" d="m517 229 2 2z"/><path fill="#fcf1e4" d="m454 231 2 2z"/><path fill="#fbbe66" d="m476 231 2 2z"/><path fill="#faca88" d="m513 231 2 2z"/><path fill="#f9d099" d="m517 231 2 2z"/><path fill="#f9d6aa" d="m454 233 2 2z"/><path fill="#fcf1e4" d="m476 233 2 2z"/><path fill="#fae3c9" d="m486 233 2 2z"/><path fill="#fea522" d="m488 233 2 2z"/><path fill="#fcb144" d="m490 233 2 2z"/><path fill="#f9d6aa" d="m492 233 2 2z"/><path fill="#fef8f1" d="m513 233 2 2z"/><path fill="#fea522" d="m515 233 2 2z"/><path fill="#fdab33" d="m517 233 2 2z"/><path fill="#faca88" d="m454 235-2 6 2-6z"/><path fill="#fea522" d="m474 235 2 2z"/><path fill="#fef8f1" d="m476 235 2 2z"/><path fill="#f9d099" d="m486 235 2 2z"/><path fill="#fdab33" d="m494 235 2 2z"/><path fill="#fae3c9" d="m497 235 2 2z"/><path fill="#f8dcbb" d="m515 235 2 2z"/><path fill="#f90" d="m517 235 2 2z"/><path fill="#fbead6" d="M520 237v1z"/><path fill="#fea522" d="m478 237 2 2z"/><path fill="#fbbe66" d="m480 237 2 2z"/><path fill="#faca88" d="m482 237 2 2z"/><path fill="#fcb144" d="m484 237 2 2z"/><path fill="#fae3c9" d="m486 237 2 2z"/><path fill="#fe9f11" d="m488 237 2 2z"/><path fill="#fdab33" d="m499 237 2 2z"/><path fill="#fbc477" d="m501 237 2 2z"/><path fill="#faca88" d="m503 237 2 2z"/><path fill="#f9d6aa" d="m505 237 2 2z"/><path fill="#fae3c9" d="m508 238 1 1-1-1z"/><path fill="#fef8f1" d="m511 237 2 2z"/><path fill="#fbc477" d="m517 237 2 2z"/><path fill="#fef8f1" d="m430 239 2 2z"/><path fill="#fcf1e4" d="m432 239 2 2z"/><path fill="#fcb755" d="m484 239 2 2z"/><path fill="#fbead6" d="m488 239 2 2z"/><path fill="#fea522" d="m490 239 2 2z"/><path fill="#fe9f11" d="m507 239 2 2z"/><path fill="#fcb144" d="m509 239-2 4z"/><path fill="#fe9f11" d="m513 239 2 2z"/><path fill="#fbbe66" d="m515 239 2 2z"/><path fill="#fcf1e4" d="m517 239 2 2z"/><path fill="#fae3c9" d="m430 241 2 2z"/><path fill="#fe9f11" d="m432 241 4 4z"/><path fill="#fbead6" d="m434 241 2 2zm18 0 2 2z"/><path fill="#fae3c9" d="m454 241 2 2z"/><path fill="#fe9f11" d="m472 241 2 2z"/><path fill="#fbc477" d="m474 241 2 2z"/><path fill="#fea522" d="m476 241 2 2z"/><path fill="#fbc477" d="m482 241 2 2z"/><path fill="#fef8f1" d="m484 241 2 2z"/><path fill="#fbc477" d="m492 241 2 2z"/><path fill="#fff" d="m509 241 2 2z"/><path fill="#fdab33" d="m511 241 2 2z"/><path fill="#fbc477" d="m519 241 2 2z"/><path fill="#fef8f1" d="m430 243 2 2z"/><path fill="#fbead6" d="m436 243 2 2z"/><path fill="#f9d6aa" d="m446 243 2 2z"/><path fill="#fe9f11" d="m456 243 2 2z"/><path fill="#f9d6aa" d="m459 244 2 1z"/><path fill="#f8dcbb" d="m472 243 2 2z"/><path fill="#fcf1e4" d="m478 243 2 2z"/><path fill="#f9d6aa" d="m494 243 2 2z"/><path fill="#fdab33" d="m509 243 2 2z"/><path fill="#fcb755" d="m521 243 2 2z"/><path fill="#fef8f1" d="m523 243 2 2z"/><path fill="#53527c" d="m413 245 2 2z"/><path fill="#fcb755" d="m432 245 2 2z"/><path fill="#fea522" d="m436 245 2 2z"/><path fill="#fbead6" d="m444 245 2 2z"/><path fill="#fe9f11" d="m448 245 2 2z"/><path fill="#fcf1e4" d="m450 245 2 2z"/><path fill="#fbbe66" d="m456 245 2 2z"/><path fill="#fbc477" d="m458 245 2 2z"/><path fill="#fbbe66" d="m460 245 2 2z"/><path fill="#fea522" d="m470 245 2 2z"/><path fill="#f9d6aa" d="m497 245 2 2z"/><path fill="#fcb144" d="m523 245 2 2z"/><path fill="#8d8d5b" d="m555 245 2 2z"/><path fill="#e5e3af" d="m419 247 2 2z"/><path fill="#f8dcbb" d="m432 247 2 2z"/><path fill="#fdab33" d="m438 247 2 2z"/><path fill="#fe9f11" d="m444 247 2 2z"/><path fill="#faca88" d="m448 247 2 2z"/><path fill="#fcf1e4" d="m456 247 2 2z"/><path fill="#f9d099" d="m470 247 2 2-2-2m29 0 2 2z"/><path fill="#fbbe66" d="m525 247 2 2z"/><path fill="#fea522" d="m434 249 2 2z"/><path fill="#fdab33" d="m440 249 2 2z"/><path fill="#fea522" d="m442 249 2 2z"/><path fill="#fe9f11" d="m446 249 2 2z"/><path fill="#fef8f1" d="m448 249 2 2z"/><path fill="#fbbe66" d="m458 249 2 2z"/><path fill="#fef8f1" d="m470 249 2 2z"/><path fill="#fbbe66" d="m501 249 2 2z"/><path fill="#f9d099" d="m527 249 2 2z"/><path fill="#f9d6aa" d="m434 252 2 2z"/><path fill="#f9d099" d="m446 252 2 2z"/><path fill="#fcf1e4" d="m458 252 2 2z"/><path fill="#fdab33" d="m468 252 2 2-2-2m35 0 2 2z"/><path fill="#fbead6" d="m529 252 2 2z"/><path fill="#fea522" d="m436 254 2 2z"/><path fill="#fe9f11" d="m444 254 2 2z"/><path fill="#fcb144" d="m460 254 2 2z"/><path fill="#faca88" d="m468 254 2 2z"/><path fill="#f8dcbb" d="m503 254 2 2z"/><path fill="#fcb144" d="m529 254 2 2z"/><path fill="#d3d079" d="m419 256 2 2z"/><path fill="#faca88" d="m436 256 2 2zm24 0 2 2z"/><path fill="#fae3c9" d="m468 256 2 2-2-2m35 0 2 2z"/><path fill="#f8dcbb" d="m531 256 2 2-2-2z"/><path fill="#f2f1d7" d="m549 256 2 2z"/><path fill="#58587b" d="m556 257 1 1z"/><path fill="#d9d868" d="m420 259 1 1-1-1z"/><path fill="#f8dcbb" d="m436 258 2 2z"/><path fill="#f9d6aa" d="m501 258 2 2z"/><path fill="#fe9f11" d="m503 258 2 2z"/><path fill="#fcb144" d="m531 258 2 2-2-2z"/><path fill="#f2f1d2" d="m550 259 1 1z"/><path fill="#fcf1e4" d="m436 260 2 2z"/><path fill="#fef8f1" d="m499 260 2 2z"/><path fill="#fe9f11" d="m501 260 2 2z"/><path fill="#fdab33" d="m507 260-2 4z"/><path fill="#fcb755" d="m509 260 2 2z"/><path fill="#fea522" d="m533 260 2 2z"/><path fill="#f9d099" d="m535 260 2 2z"/><path fill="#53527c" d="m555 260 2 2z"/><path fill="#808067" d="m416 263 1 1z"/><path fill="#fea522" d="m438 262 2 2-2-2m6 0 2 2-2-2z"/><path fill="#fe9f11" d="m466 262 2 2z"/><path fill="#fae3c9" d="m499 262 2 2z"/><path fill="#fef8f1" d="m507 262 2 2z"/><path fill="#fcb144" d="m511 262 2 2z"/><path fill="#fcb755" d="m537 262 2 2z"/><path fill="#fef8f1" d="m539 262 4 4z"/><path fill="#e5e59d" d="m550 263 1 1z"/><path fill="#32327b" d="m556 263 1 1z"/><path fill="#fcb755" d="m438 265 1 1z"/><path fill="#fef8f1" d="m446 264 2 2z"/><path fill="#fbbe66" d="m466 264 2 2z"/><path fill="#fbead6" d="m499 264 2 2z"/><path fill="#fe9f11" d="m503 264 2 2z"/><path fill="#fcf1e4" d="m505 264 2 2z"/><path fill="#fbead6" d="m511 264 2 2z"/><path fill="#fdab33" d="m539 264 2 2z"/><path fill="#667" d="m415 266 2 2-2-2z"/><path fill="#f6f6e4" d="m421 266 2 2-2-2z"/><path fill="#f9d6aa" d="m446 266 2 2-2-2z"/><path fill="#fdab33" d="m462 266 2 2-2-2z"/><path fill="#fe9f11" d="m464 266 2 2-2-2z"/><path fill="#fcf1e4" d="m466 266 2 2-2-2z"/><path fill="#fea522" d="m501 266 2 2-2-2z"/><path fill="#faca88" d="m503 266 2 2-2-2m10 0 2 2z"/><path fill="#fcb144" d="m541 266 2 2-2-2z"/><path fill="#dddc7a" d="m549 266 2 2-2-2z"/><path fill="#58587b" d="m415 268 2 2z"/><path fill="#f2f1d2" d="m421 268 2 2z"/><path fill="#fcb144" d="m438 269 1 1z"/><path fill="#fea522" d="m446 268 2 2z"/><path fill="#fef8f1" d="m466 268 2 2z"/><path fill="#fea522" d="m468 268 2 2z"/><path fill="#fcb144" d="m472 268 2 2z"/><path fill="#fbead6" d="m474 268 2 2z"/><path fill="#f8dcbb" d="m501 268 2 2z"/><path fill="#fcf1e4" d="m503 268 2 2z"/><path fill="#fef8f1" d="m513 268 2 2z"/><path fill="#fe9f11" d="m515 268 2 2z"/><path fill="#fbead6" d="m543 268 2 2z"/><path fill="#d9d868" d="m549 268 2 2z"/><path fill="#3a3a7c" d="m415 270 2 2z"/><path fill="#e5e3af" d="m421 270 2 2z"/><path fill="#faca88" d="m448 270 2 2z"/><path fill="#fbead6" d="m468 270 2 2z"/><path fill="#fe9f11" d="m474 270 2 2z"/><path fill="#fcf1e4" d="m476 270 2 2z"/><path fill="#fbead6" d="m499 270 2 2z"/><path fill="#fae3c9" d="m501 270 2 2z"/><path fill="#fbead6" d="m503 270 2 2z"/><path fill="#fbbe66" d="m515 270 2 2-2-2m16 0 2 2z"/><path fill="#fcf1e4" d="m533 270 2 2z"/><path fill="#fef8f1" d="m535 270 2 2z"/><path fill="#f8dcbb" d="m537 270 2 2z"/><path fill="#fcb755" d="m539 270 2 2z"/><path fill="#fae3c9" d="m543 270 2 2z"/><path fill="#808067" d="m553 270 2 2z"/><path fill="#32327b" d="m415 272 2 2z"/><path fill="#a4a43d" d="m418 273 1 2-1-2z"/><path fill="#e5e59d" d="m421 272 2 2z"/><path fill="#fbc477" d="m438 272 2 2z"/><path fill="#f9d6aa" d="m450 272 2 2z"/><path fill="#fbbe66" d="m470 272 2 2z"/><path fill="#f9d099" d="m476 272 2 2z"/><path fill="#fae3c9" d="m494 272 2 2z"/><path fill="#fcb144" d="m497 272 2 2z"/><path fill="#fae3c9" d="m505 272 2 2z"/><path fill="#f8dcbb" d="m515 272 2 2z"/><path fill="#f9d099" d="m531 272 2 2-2-2z"/><path fill="#fbc477" d="m541 272 2 2z"/><path fill="#fbead6" d="m543 272 2 2z"/><path fill="#737370" d="m553 272 2 2z"/><path fill="#d9d868" d="m421 274 2 2z"/><path fill="#f9d099" d="m438 274 2 2z"/><path fill="#f9d6aa" d="m452 274 2 2-2-2m18 0 2 2z"/><path fill="#fbc477" d="m476 274 2 2z"/><path fill="#fef8f1" d="m486 274 2 2z"/><path fill="#f8dcbb" d="m488 274 2 2z"/><path fill="#fbc477" d="m490 274 2 2z"/><path fill="#fea522" d="m492 274 2 2z"/><path fill="#fbead6" d="m505 274 2 2z"/><path fill="#f2f1d2" d="m547 274 2 2z"/><path fill="#58587b" d="m553 274 2 2z"/><path fill="#99994e" d="m417 276 2 2z"/><path fill="#d0d045" d="m421 276 2 2z"/><path fill="#fcb144" d="m454 276 2 2z"/><path fill="#fae3c9" d="m456 276 2 2z"/><path fill="#fef8f1" d="m470 276 2 2z"/><path fill="#fcb755" d="m478 276 2 2z"/><path fill="#fbc477" d="m480 276 2 2z"/><path fill="#fcb144" d="m482 276 2 2z"/><path fill="#fea522" d="m484 276 2 2z"/><path fill="#fe9f11" d="m501 276 2 2z"/><path fill="#f9d6aa" d="m503 276 2 2z"/><path fill="#fef8f1" d="m531 276 2 2-2-2z"/><path fill="#e0dea1" d="m547 276 2 2z"/><path fill="#3a3a7c" d="m553 276 2 2z"/><path fill="#737370" d="m417 278 2 2z"/><path fill="#fbfaf2" d="m423 278 2 2z"/><path fill="#fea522" d="m440 278 2 2z"/><path fill="#fe9f11" d="m458 278 2 2z"/><path fill="#fcb144" d="m460 278 2 2z"/><path fill="#fbc477" d="m462 278 2 2z"/><path fill="#faca88" d="m464 278 2 2-2-2z"/><path fill="#fbc477" d="m466 278 2 2z"/><path fill="#fcb144" d="m468 278 2 2z"/><path fill="#fdab33" d="m470 278 2 2z"/><path fill="#fbc477" d="m499 278 2 2z"/><path fill="#fef8f1" d="m501 278 2 2z"/><path fill="#fdab33" d="m529 278 2 2z"/><path fill="#e1e18c" d="m547 278 2 2z"/><path fill="#a4a43d" d="m552 279 1 2z"/><path fill="#262678" d="m553 278 2 2z"/><path fill="#58587b" d="m417 280 2 2z"/><path fill="#f2f1d2" d="m423 280 2 2z"/><path fill="#faca88" d="m440 280 2 2z"/><path fill="#fe9f11" d="m494 280 2 2z"/><path fill="#fbead6" d="m497 280 2 2z"/><path fill="#fbc477" d="m515 280 2 2z"/><path fill="#faca88" d="m529 280 2 2z"/><path fill="#d4d456" d="m547 280 2 2z"/><path fill="#32327b" d="m417 282 2 2z"/><path fill="#e5e59d" d="m423 282 2 2z"/><path fill="#fef8f1" d="m440 282 2 2z"/><path fill="#fe9f11" d="m442 282 2 2z"/><path fill="#fbead6" d="m494 282 2 2z"/><path fill="#fea522" d="m515 282 2 2z"/><path fill="#fcf1e4" d="m529 282 2 2z"/><path fill="#808067" d="m551 282 2 2z"/><path fill="#0e0e6e" d="m417 284 2 2z"/><path fill="#a4a43d" d="m419 284 2 2z"/><path fill="#d9d868" d="m423 284 2 2z"/><path fill="#f8dcbb" d="m442 284 2 2z"/><path fill="#f9d6aa" d="m513 284 2 2z"/><path fill="#faca88" d="m527 284 2 2z"/><path fill="#f2f1d2" d="m545 284 2 2z"/><path fill="#58587b" d="m551 284 2 2z"/><path fill="#8d8d5b" d="m419 286 2 2z"/><path fill="#f9d6aa" d="m444 286 2 2z"/><path fill="#fdab33" d="m484 286 2 2z"/><path fill="#fff" d="m486 286 2 2z"/><path fill="#fcb144" d="M490 287h1z"/><path fill="#fef8f1" d="m511 286-2 4z"/><path fill="#fe9f11" d="m513 286 2 2z"/><path fill="#fdab33" d="m525 286-2 4z"/><path fill="#e5e59d" d="m545 286 2 2z"/><path fill="#3a3a7c" d="m551 286 2 2z"/><path fill="#667" d="m419 288 2 2z"/><path fill="#f2f1d2" d="m425 288 2 2z"/><path fill="#f9d6aa" d="m446 288 2 2z"/><path fill="#fe9f11" d="m484 288 2 2z"/><path fill="#faca88" d="m486 288 2 2z"/><path fill="#fea522" d="m488 288 2 2z"/><path fill="#fcf1e4" d="m490 288 2 2z"/><path fill="#fdab33" d="m511 288 2 2z"/><path fill="#fef8f1" d="m525 288 2 2z"/><path fill="#d9d868" d="m545 288 2 2z"/><path fill="#a4a43d" d="m549 288 2 2z"/><path fill="#0e0e6e" d="m551 288 2 2z"/><path fill="#3a3a7c" d="m419 290 2 2z"/><path fill="#e5e59d" d="m425 290 2 2z"/><path fill="#fae3c9" d="m448 290 4 4z"/><path fill="#fe9f11" d="m450 290 2 2z"/><path fill="#f8dcbb" d="m488 290 2 2z"/><path fill="#fcf1e4" d="m507 290 2 2z"/><path fill="#fdab33" d="m509 290 2 2z"/><path fill="#fcb144" d="m521 290 2 2z"/><path fill="#fef8f1" d="m523 290 2 2z"/><path fill="#fbfaf2" d="m543 290 2 2z"/><path fill="#8d8d5b" d="m549 290 2 2z"/><path fill="#0e0e6e" d="m419 292 2 2z"/><path fill="#a4a43d" d="m421 292 2 2z"/><path fill="#d4d456" d="m425 292 2 2z"/><path fill="#f9d6aa" d="m486 292 2 2z"/><path fill="#f9d099" d="m505 292 2 2z"/><path fill="#fe9f11" d="m507 292 2 2z"/><path fill="#faca88" d="m519 292 2 2z"/><path fill="#eeedc1" d="m543 292 2 2z"/><path fill="#58587b" d="m549 292 2 2z"/><path fill="#737370" d="m421 294 2 2z"/><path fill="#f6f6e4" d="m427 294 2 2z"/><path fill="#fbbe66" d="m450 294 2 2z"/><path fill="#fcb144" d="m482 294 2 2z"/><path fill="#f8dcbb" d="m485 296 1 1z"/><path fill="#fbbe66" d="m501 294 2 2z"/><path fill="#fe9f11" d="m503 294 2 2z"/><path fill="#fbc477" d="m515 294 2 2z"/><path fill="#fcf1e4" d="m517 294 2 2z"/><path fill="#d3d079" d="m543 294 2 2z"/><path fill="#a4a43d" d="m547 294 2 2z"/><path fill="#262678" d="m549 294 2 2z"/><path fill="#49497d" d="m421 296 2 2z"/><path fill="#e0dea1" d="m427 296 2 2z"/><path fill="#fae3c9" d="m448 296 2 2z"/><path fill="#fdab33" d="m476 296 2 2z"/><path fill="#fbc477" d="m478 296 2 2z"/><path fill="#fbead6" d="m480 296 2 2z"/><path fill="#fcb144" d="m486 296 2 2z"/><path fill="#f9d6aa" d="m513 296 2 2z"/><path fill="#99994e" d="m547 296 2 2z"/><path fill="#0e0e6e" d="m421 298 2 2z"/><path fill="#a4a43d" d="m423 298 2 2z"/><path fill="#d4d456" d="m427 298 2 2z"/><path fill="#f9d099" d="m446 298 2 2z"/><path fill="#fe9f11" d="m448 298 2 2-2-2m10 0 2 2z"/><path fill="#f9d6aa" d="m460 298 2 2z"/><path fill="#f9d099" d="m462 298 2 2z"/><path fill="#f9d6aa" d="m470 298 2 2z"/><path fill="#fae3c9" d="m472 298 2 2z"/><path fill="#fef8f1" d="m474 298 2 2z"/><path fill="#fbead6" d="m490 298 2 2z"/><path fill="#fae3c9" d="m492 298 2 2z"/><path fill="#faca88" d="m494 298 2 2z"/><path fill="#fbc477" d="m497 298 2 2z"/><path fill="#fdab33" d="m499 298 2 2z"/><path fill="#fe9f11" d="m509 298 2 2z"/><path fill="#f9d6aa" d="m511 298 2 2z"/><path fill="#e5e3af" d="m541 298 2 2z"/><path fill="#667" d="m547 298 2 2z"/><path fill="#737370" d="m423 300 2 2z"/><path fill="#f2f1d7" d="m430 300 2 2z"/><path fill="#fea522" d="m444 300 2 2z"/><path fill="#fe9f11" d="m454 300 2 2z"/><path fill="#fbbe66" d="m456 300 2 2z"/><path fill="#fcf1e4" d="m458 300 2 2z"/><path fill="#fea522" d="m507 300 2 2z"/><path fill="#fbead6" d="m509 300 2 2z"/><path fill="#dddc7a" d="m541 300 2 2z"/><path fill="#a4a43d" d="m545 300 2 2z"/><path fill="#262678" d="m547 300 2 2z"/><path fill="#49497d" d="m423 302 2 2z"/><path fill="#a4a43d" d="m426 304 1 1z"/><path fill="#d3d079" d="m430 302 2 2z"/><path fill="#f9d099" d="m446 302 2 2z"/><path fill="#fcb144" d="m448 302 2 2z"/><path fill="#faca88" d="m450 302 2 2z"/><path fill="#f8dcbb" d="m452 302 2 2z"/><path fill="#fef8f1" d="m454 302 2 2z"/><path fill="#f8dcbb" d="m499 302 2 2z"/><path fill="#fcf1e4" d="m507 302 2 2z"/><path fill="#f6f6e4" d="m539 302 2 2z"/><path fill="#8d8d5b" d="m545 302 2 2z"/><path fill="#fbfaf2" d="m432 304 2 2z"/><path fill="#fbbe66" d="m499 304 2 2z"/><path fill="#faca88" d="m505 304 2 2z"/><path fill="#e1e18c" d="m539 304 2 2z"/><path fill="#49497d" d="m545 304 2 2z"/><path fill="#58587b" d="m425 306 2 2z"/><path fill="#e5e59d" d="m432 306 2 2z"/><path fill="#fe9f11" d="m499 306 2 2z"/><path fill="#fdab33" d="m503 306 2 2z"/><path fill="#fbfaf2" d="m537 306 2 2z"/><path fill="#a4a43d" d="m543 306 2 2z"/><path fill="#0e0e6e" d="m545 306 2 2z"/><path fill="#1b1b74" d="m425 308 2 2z"/><path fill="#a4a43d" d="m427 308 2 2z"/><path fill="#d0d045" d="m432 308 2 2z"/><path fill="#fbead6" d="m497 308 2 2z"/><path fill="#fe9f11" d="m501 308 2 2z"/><path fill="#fbead6" d="m503 308 2 2z"/><path fill="#e5e59d" d="m537 308 2 2z"/><path fill="#667" d="m543 308 2 2z"/><path fill="#6e6c70" d="m427 310 2 2z"/><path fill="#e5e3af" d="m434 310 2 2z"/><path fill="#faca88" d="m497 312 1 1z"/><path fill="#fae3c9" d="m501 310 2 2z"/><path fill="#fbfaf2" d="m535 310 2 2z"/><path fill="#a4a43d" d="m541 310 2 2z"/><path fill="#1b1b74" d="m543 310 2 2-2-2m-116 2 2 2z"/><path fill="#a4a43d" d="m430 312 2 2z"/><path fill="#d0d045" d="m434 312 2 2z"/><path fill="#fbfaf2" d="m436 312 2 2z"/><path fill="#f9d6aa" d="m499 312 2 2z"/><path fill="#e5e59d" d="m535 312 2 2z"/><path fill="#6e6c70" d="m541 312 2 2-2-2m-111 2 2 2z"/><path fill="#8cbf84" d="m436 314 2 2z"/><path fill="#0cf" d="M436 314c7 15 32 50 51 50 19-1 40-35 48-50z"/><path fill="#a4a43d" d="m539 314 2 2z"/><path fill="#1b1b74" d="m541 314 2 2-2-2m-111 2 2 2z"/><path fill="#a4a43d" d="m432 316 2 2z"/><path fill="#adb333" d="m436 316 2 2z"/><path fill="#1ac5b5" d="m438 316 2 2z"/><path fill="#68b070" d="m533 316 2 2z"/><path fill="#667" d="m539 316 2 2z"/><path fill="#58587b" d="m432 319 2 2z"/><path fill="#7fb15c" d="m438 319 2 2z"/><path fill="#27c2aa" d="m531 319 2 2-2-2z"/><path fill="#a4a43d" d="m537 319-2 4z"/><path fill="#0e0e6e" d="m539 319 2 2-2-2m-107 2 2 2z"/><path fill="#a4a43d" d="m434 321 4 4z"/><path fill="#34be9e" d="m440 321 2 2z"/><path fill="#96b247" d="m531 321 2 2-2-2z"/><path fill="#53527c" d="m537 321 2 2z"/><path fill="#3a3a7c" d="m434 323 2 2z"/><path fill="#a2b23d" d="m440 323 2 2z"/><path fill="#0dc9c1" d="m442 323 2 2z"/><path fill="#5bb47c" d="m529 323 2 2z"/><path fill="#8d8d5b" d="m535 323 2 2z"/><path fill="#737370" d="m436 325 2 2z"/><path fill="#74b166" d="m442 325 2 2z"/><path fill="#27c2aa" d="m527 325 2 2z"/><path fill="#a4a43d" d="m533 325-2 4z"/><path fill="#262678" d="m535 325 2 2z"/><path fill="#0e0e6e" d="m436 327 2 2z"/><path fill="#a4a43d" d="m438 327 4 4z"/><path fill="#42bb92" d="m444 327 2 2z"/><path fill="#0dc9c1" d="m525 327 2 2z"/><path fill="#96b247" d="m527 327 2 2z"/><path fill="#58587b" d="m533 327 2 2z"/><path fill="#3a3a7c" d="m438 329 2 2z"/><path fill="#adb333" d="m444 329 2 2z"/><path fill="#27c2aa" d="m446 329 2 2z"/><path fill="#74b166" d="m525 329 2 2z"/><path fill="#8d8d5b" d="m531 329 2 2-2-2z"/><path fill="#6e6c70" d="m440 331 2 2z"/><path fill="#96b247" d="m446 331 2 2z"/><path fill="#0dc9c1" d="m448 331 2 2z"/><path fill="#42bb92" d="m523 331 2 2z"/><path fill="#a4a43d" d="m529 331-4 6 4-6z"/><path fill="#1b1b74" d="m531 331 2 2-2-2z"/><path fill="#0e0e6e" d="m440 333 2 2-2-2z"/><path fill="#8d8d5b" d="m442 333 2 2-2-2z"/><path fill="#7fb15c" d="m448 333 2 2-2-2z"/><path fill="#34be9e" d="m521 333 2 2-2-2z"/><path fill="#3a3a7c" d="m529 333 2 2-2-2z"/><path fill="#1b1b74" d="m442 335 2 2z"/><path fill="#a4a43d" d="m444 335 22 22z"/><path fill="#74b166" d="m450 335 2 2z"/><path fill="#27c2aa" d="m519 335 2 2z"/><path fill="#adb333" d="m521 335 2 2z"/><path fill="#667" d="m527 335 2 2z"/><path fill="#32327b" d="m444 337 2 2z"/><path fill="#42bb92" d="m452 337 2 2z"/><path fill="#0dc9c1" d="m517 337-8 10 8-10z"/><path fill="#adb333" d="m519 337 2 2z"/><path fill="#737370" d="m525 337 2 2z"/><path fill="#49497d" d="m446 339 2 2z"/><path fill="#42bb92" d="m454 339 2 2z"/><path fill="#96b247" d="m517 339 2 2z"/><path fill="#8d8d5b" d="m523 339-2 4z"/><path fill="#0e0e6e" d="m525 339 2 2z"/><path fill="#53527c" d="m448 341 2 2z"/><path fill="#42bb92" d="m456 341 2 2z"/><path fill="#96b247" d="m515 341 2 2z"/><path fill="#0e0e6e" d="m523 341 2 2z"/><path fill="#6e6c70" d="m450 343 2 2z"/><path fill="#42bb92" d="m458 343 2 2z"/><path fill="#96b247" d="m513 343 2 2z"/><path fill="#a4a43d" d="m519 343-4 6 4-6z"/><path fill="#262678" d="m521 343 2 2z"/><path fill="#6e6c70" d="m452 345 2 2z"/><path fill="#42bb92" d="m460 345 2 2z"/><path fill="#96b247" d="m511 345 2 2z"/><path fill="#262678" d="m519 345 2 2z"/><path fill="#6e6c70" d="m454 347 2 2z"/><path fill="#68b070" d="m462 347 2 2z"/><path fill="#27c2aa" d="m507 347 2 2z"/><path fill="#adb333" d="m509 347 2 2z"/><path fill="#262678" d="m517 347 2 2z"/><path fill="#667" d="m456 349 2 2z"/><path fill="#74b166" d="m464 349 2 2-2-2z"/><path fill="#34be9e" d="m505 349 2 2z"/><path fill="#adb333" d="m507 349 2 2z"/><path fill="#8d8d5b" d="m513 349-2 4z"/><path fill="#262678" d="m515 349 2 2z"/><path fill="#49497d" d="m458 351 2 2z"/><path fill="#96b247" d="m466 351 2 2z"/><path fill="#0dc9c1" d="m468 351 2 2z"/><path fill="#42bb92" d="m503 351 2 2z"/><path fill="#0e0e6e" d="m513 351 2 2z"/><path fill="#49497d" d="m460 353 2 2z"/><path fill="#a2b23d" d="m468 353 2 2z"/><path fill="#27c2aa" d="m470 353 2 2z"/><path fill="#74b166" d="m501 353 2 2z"/><path fill="#a4a43d" d="m507 353-6 8z"/><path fill="#808067" d="m509 353 2 2z"/><path fill="#0e0e6e" d="m511 353 2 2z"/><path fill="#262678" d="m462 355 2 2z"/><path fill="#adb333" d="m470 355 2 2z"/><path fill="#42bb92" d="m472 355 2 2z"/><path fill="#0dc9c1" d="m497 355 2 2z"/><path fill="#96b247" d="m499 355 2 2z"/><path fill="#6e6c70" d="m507 355 2 2z"/><path fill="#1b1b74" d="m464 357 2 2-2-2z"/><path fill="#8d8d5b" d="m466 357 2 2z"/><path fill="#74b166" d="m474 357 2 2z"/><path fill="#0dc9c1" d="m476 357 2 2z"/><path fill="#34be9e" d="m494 357 2 2z"/><path fill="#adb333" d="m497 357 2 2z"/><path fill="#49497d" d="m505 357 2 2z"/><path fill="#0e0e6e" d="m466 359 2 2z"/><path fill="#6e6c70" d="m468 359 2 2z"/><path fill="#a4a43d" d="m470 359 4 4z"/><path fill="#96b247" d="m476 359 2 2z"/><path fill="#27c2aa" d="m478 359 2 2z"/><path fill="#68b070" d="m492 359 2 2z"/><path fill="#32327b" d="m503 359 2 2z"/><path fill="#49497d" d="m470 361 2 2z"/><path fill="#5bb47c" d="m480 361 2 2z"/><path fill="#27c2aa" d="m488 361 2 2z"/><path fill="#96b247" d="m490 361 2 2z"/><path fill="#a4a43d" d="m497 361-2 4z"/><path fill="#808067" d="m499 361 2 2z"/><path fill="#0e0e6e" d="m501 361 2 2z"/><path fill="#262678" d="m472 363 2 2z"/><path fill="#8d8d5b" d="m474 363 2 2z"/><path fill="#8bb252" d="m482 363 2 2z"/><path fill="#1ac5b5" d="m484 363 2 2z"/><path fill="#5bb47c" d="m486 363 2 2z"/><path fill="#58587b" d="m497 363 2 2z"/><path fill="#0e0e6e" d="m474 365 2 2z"/><path fill="#667" d="m476 365 2 2z"/><path fill="#a4a43d" d="m478 365 2 2z"/><path fill="#99994e" d="m492 365 2 2z"/><path fill="#32327b" d="m494 365 2 2-2-2m-16 2 2 2z"/><path fill="#99994e" d="m480 367 2 2z"/><path fill="#a4a43d" d="m488 367 2 2z"/><path fill="#667" d="m490 367 2 2z"/><path fill="#0e0e6e" d="m492 367 2 2-2-2m-12 2 2 2z"/><path fill="#667" d="m482 369 2 2z"/><path fill="#a4a43d" d="m484 369 2 2z"/><path fill="#99994e" d="m486 369 2 2z"/><path fill="#32327b" d="m488 369 2 2z"/><path fill="#262678" d="m484 371 2 2z"/><path fill="#0e0e6e" d="m486 371 2 2z"/><path fill="#f90" d="M488 235c4 8 14 16 16 20-3 4-4 3-3 11 6-7 6-7 10-6 8 8 1 27-6 31s-6-1-16 5c4 4 10-1 15 0 2 3-1 9 0 14 4 0 4-9 5-12 3-11 21-18 22-28 4-2 8-1 12 2-2-10-10-10-12-13-5-7-9-15-19-17-8-2-7 0-12-3-4-3-13-7-12-4z"/><path fill="#fff" fill-rule="evenodd" d="M511 244a2 2 0 1 1-3 0 2 2 0 0 1 3 0z"/><path fill="#f90" d="M463 267c5-7 8-19 10-24 5 2 5 2 12-1-9-3-10-3-11-7 4-11 24-14 30-9 8 4 3 5 13 12 1-6-6-9-7-14 2-3 8-3 12-7-2-3-9 1-13 2-11 2-26-10-35-6-3-3-4-7-4-12-7 6-4 13-5 16-5 8-10 16-7 26 2 8 4 6 3 12-1 4 0 15 2 12z"/><path fill="#fff" fill-rule="evenodd" d="M460 243h2a2 2 0 1 1-2 0z"/><path fill="#f90" d="M504 271c-8-1-20 3-25 4-1-6 0-6-7-9 2 8 3 9 0 12-12 2-24-13-24-21 0-9 3-5 4-17-6 2-5 9-8 12-4 1-7-5-12-6-2 4 5 8 7 10 8 8 6 28 14 34-1 4-4 6-8 9 9 3 13-4 16-4 9 0 19 0 26-7 5-6 3-7 9-9 3-2 12-8 8-8z"/><path fill="#fff" fill-rule="evenodd" d="M486 286a2 2 0 1 1 1-3 2 2 0 0 1-2 3z"/><path fill="#012169" d="M0 0h320v240H0z"/><path fill="#fff" d="m38 0 122 91L281 0h39v31l-120 90 120 89v30h-40l-120-89-119 89H0v-30l120-89L0 32V0z"/><path fill="#c8102e" d="m212 141 108 79v20l-135-99zm-92 10 3 17-96 72H0zM320 0v2L196 96l1-22 98-74zM0 0l120 88H90L0 21z"/><path fill="#fff" d="M121 0v240h80V0zM0 80v80h320V80z"/><path fill="#c8102e" d="M0 97v48h320V97zM137 0v240h48V0z"/></svg>