<svg xmlns="http://www.w3.org/2000/svg" viewBox="0 0 640 480"><g fill-rule="evenodd"><path fill="red" d="M0 0h640v244H0z"/><path d="M0 236h640v244H0z"/></g><path fill="#ffec00" fill-rule="evenodd" d="M229 148c165 43 59 256-72 167l-8 14c76 55 152 11 174-46 22-59-8-142-93-150l-1 15z"/><path fill="#ffec00" fill-rule="evenodd" d="m170 331 22 10-11 22-21-10zm149-100h24v24h-24zm-12-39 23-8 8 22-22 9zm-26-29 17-17 17 17-17 17zm-26-39 23 8-9 22-22-8zm61 146 22 9-9 22-22-9zm-70 70 22-9 10 22-22 9zm-39 3h24v24h-24zm41-116-20-15-21 14 8-23-20-15h24l9-22 8 23 24-1-19 15 7 24z"/><path fill="#fe0" fill-rule="evenodd" d="m336 346-10 19 4 1c14 4 20 9 26 17a8 8 0 0 0 10 1s3-1 7-5c3-5 2-8-2-11l-35-22z"/><path fill-rule="evenodd" d="M365 373a4 4 0 1 1-8 0 4 4 0 0 1 8 0zm-21-14a4 4 0 1 1-9 0 4 4 0 0 1 9 0zm11 7a4 4 0 1 1-9 0 4 4 0 0 1 9 0z"/><path fill="#fe0" fill-rule="evenodd" d="m325 364-130-75c-19-12-20-34-7-50 1-2 2-2 3-1 1 8 6 17 11 22a5288 5288 0 0 1 132 86l-9 18z"/><path fill="#ffec00" fill-rule="evenodd" d="m297 306 18 16-16 17-18-16z"/><path fill="none" stroke="#000" stroke-width="3" d="m332 349-125-76m109 58-42-27m18 43-43-25"/></svg>