<svg xmlns="http://www.w3.org/2000/svg" viewBox="0 0 640 480"><defs><clipPath id="a"><path d="M-80 0h683v512H-80z"/></clipPath></defs><g fill-rule="evenodd" clip-path="url(#a)" transform="translate(75) scale(.9375)"><path fill="#ffe900" d="M-108 0h738v512h-738z"/><path fill="#35a100" d="m-108 0 1 369L467 0h-575z"/><path fill="#c70000" d="m631 512-2-384L50 512h581z"/><path d="m-108 397 1 115H18l612-410-1-101-124-1-613 397z"/><path fill="#fff" d="m380 157-9-43 33 27 38-24-18 41 34 27-44-1-18 41-10-42-44-2zM105 336l-10-43 34 27 38-24-18 41 34 27-45-1-17 41-10-42-44-2z"/></g></svg>