<svg xmlns="http://www.w3.org/2000/svg" fill="#ffd900" viewBox="0 0 640 480"><path fill="#da2032" d="M0 0h640v480H0Z"/><path fill="#0066b3" d="M213 0h214v480H213Z"/><circle cx="107" cy="182" r="40"/><circle cx="107" cy="164" r="44" fill="#da2032"/><circle cx="107" cy="171" r="29"/><path d="M110 76a9 9 0 0 0-5 8c-1 2 0 5 1 8 0 4-5 5-5 11 0 2 2 4 2 10 0 3-2 3-4 3a4 4 0 0 1-3-3 4 4 0 0 1 1-3c1-1 2-1 2-3l-1-5 1-7-5 6-1 6-2 3-2 6a18 18 0 0 0 36 0l-2-5-2-4c-2-2-1-4-2-6s-2-5-5-6c2 2 2 5 2 7l-2 4c0 3 1 3 2 4a4 4 0 0 1 1 0 4 4 0 0 1 1 3 4 4 0 0 1-4 3c-2 0-3-1-4-3 0-7 3-8 3-13 0-7-6-11-6-16 0-2 0-5 3-8zM27 229h36v175H27Zm123 0h37v175h-37zm-80 0h73l-36 22Zm0 29h73v15H70Zm0 102h73v14H70Zm0 22h73l-36 21Z"/><circle cx="107" cy="316" r="36"/><g fill="#da2032" transform="translate(-39 33) scale(.72727)"><circle cx="200" cy="364" r="10"/><circle cx="200" cy="417" r="10"/><path d="M200 334a30 30 0 0 1 0 59 24 24 0 0 0 0 47v6a30 30 0 0 1 0-59 24 24 0 0 0 0-47z"/></g></svg>