<svg xmlns="http://www.w3.org/2000/svg" viewBox="0 0 640 480"><path fill="#0038a8" d="M0 320h640v160H0z"/><path fill="#fff" d="M0 160h640v160H0z"/><path fill="#d52b1e" d="M0 0h640v160H0z"/><g fill="none" stroke="#000" transform="translate(-116) scale(1.45455)"><circle cx="300" cy="165" r="42"/><circle cx="300" cy="165" r="35"/><circle cx="300" cy="165" r="27" stroke="none"/></g><path d="m287 264-7 4-2-4a6 6 0 0 1-1-1 2 2 0 0 1 0-2l1-1h2a2 2 0 0 1 1 0v1-2h1l1-2 2 2-2 3v1l3-2zm-5 0-1-1a1 1 0 0 0-1-1l-1 1 1 1v1zm-7-5-2-7 2-1 1 5 1-1-1-4h2l1 3h1l-1-4 2-1 2 7zm-3-10v-6l2-1h2l1 2v2l3-1 1 3zm4-3-1-1v-1a1 1 0 0 0-1 0v2zm-4-13v-2h5a4 4 0 0 1 2 1l1 1v5a3 3 0 0 1-2 1h-7l1-3 5 1 1-1v-1a1 1 0 0 0 0-1h-1zm1-6 2-4 1-2a2 2 0 0 1 1 0l1 1 1 1 1-1a2 2 0 0 1 1 0 2 2 0 0 1 2 2v1l-1 1-1 4zm4-1v-2a1 1 0 0 0-1 0v1zm3 1 1-1v-1a1 1 0 0 0-1-1 1 1 0 0 0-1 0v2zm-3-10 1-2 6 3 2-3 2 1-4 6zm5-7 2-2 6 5-2 2zm11-5 2-1 1 2a3 3 0 0 1 0 2 5 5 0 0 1-2 1 4 4 0 0 1-2 1 4 4 0 0 1-2 0 5 5 0 0 1-2-1l-1-4a4 4 0 0 1 2-2 4 4 0 0 1 2-1h2l-1 2a2 2 0 0 0-1 0 2 2 0 0 0-1 0 2 2 0 0 0-1 1l1 2 2 1h1l1-1-1-2zm9-3-3 2 1 1-3 1-1-8 3-2 6 6-2 1zm-1-1-3-2 1 3zm7-9h4a5 5 0 0 1 2 0l1 1 1 1 1 1v2a3 3 0 0 1-1 2 3 3 0 0 1-1 0 6 6 0 0 1-1 1l-4 1zm3 2 1 4h2v-2l-1-2h-1zm8-3h7v2h-4v1h4l-1 2h-4v2h5v2l-7-1zm10 1h3l-2 6 4 1-1 2-6-1zm13 4 4 2 1 2v2a3 3 0 0 1-2 1h-2l-1-1-2 3-2-2zm1 5h1a1 1 0 0 0 1 0 1 1 0 0 0 0-1l-1-1zm7 9-2-2-1 1-2-2 8-4 2 2-4 8-2-1zm1-1 1-3-3 1zm1 5 7-5 2 4 1 2v1a2 2 0 0 1-1 1h-1a2 2 0 0 1-1 0h-1v1l-2 3-1-3 1-2v-1a1 1 0 0 0 0-1l-3 2zm5-1 1 1v1h1a1 1 0 0 0 1-1l-1-1v-1zm3 13-1-3h-2l-1-2h9l1 2-6 6-1-2zm1-1 3-2h-3zm2 9 2-1 1 4-4 1a8 8 0 0 1-1-2 7 7 0 0 1-1-2 5 5 0 0 1 0-2 4 4 0 0 1 2-2 5 5 0 0 1 2-1 5 5 0 0 1 2 0 4 4 0 0 1 2 2l1 2v2a3 3 0 0 1-1 1l-1 1-1-2 1-1v-1a2 2 0 0 0-1-1h-2a3 3 0 0 0-1 0l-1 2v1h2zm6 12v2h-5a4 4 0 0 1-2-1 3 3 0 0 1-1 0 3 3 0 0 1 0-1 5 5 0 0 1 0-2v-3a3 3 0 0 1 1-1 3 3 0 0 1 1 0 5 5 0 0 1 1 0h5v3l-5-1-1 1a1 1 0 0 0 0 1v1h1zm-9 8 1-2-2-1 1-3 7 6-1 3h-9l1-3zm2 0 3 1-3-2zm3 7-2 3h-3l1 3-1 2-3-5-3-2 2-2 3 1z"/><g fill="#009b3a" stroke="none" stroke-width="0"><path d="M328 211s24 10 19 31c-4 21-17 21-22 23s-8 6-10 5l-5-2s0 4 4 4c4 1 9-5 12-6 2 0 18-2 22-23 5-23-20-31-20-32z"/><path d="M340 216a3 1 75 0 1-2 0 3 1 75 1 1 2 0z"/><path d="M339 216a3 1 63 1 1-1 1 3 1 63 0 1 1-1zm-2 2a3 1 17 0 1 0 1 3 1 17 0 1 0-2z"/><path d="M337 217a3 1 34 1 1-1 1 3 1 34 1 1 1-1z"/><path d="M338 216a3 1 46 1 1-1 1 3 1 46 0 1 1-1z"/><path d="m340 219-1 1h-2l-1 1h1l1-1 2-1 1-1 1-2v-1a3 3 0 0 0-1 2v1l-1 1zm7 3a1 5-2 1 1-2-1 1 5-2 1 1 2 1z"/><path d="M346 222a5 1 78 1 1-2 0 5 1 78 1 1 2 0z"/><path d="M342 223a5 1 35 1 1-1 2 5 1 35 1 1 1-2z"/><path d="M343 222a5 1 51 0 1-2 1 5 1 51 1 1 2-1z"/><path d="M344 222a5 1 62 1 1-1 1 5 1 62 1 1 1-1z"/><path d="m346 226-2 1-2-1-2 2h2l2-1h2l1-2 3-2v-1a5 5 0 0 0-2 1l-1 2-1 1zm5 5a1 5 9 1 1-2-1 1 5 9 1 1 2 1z"/><path d="M350 231a1 5-2 1 1-2 0 1 5-2 1 1 2 0z"/><path d="M346 231a5 1 46 1 1-1 2 5 1 46 1 1 1-2z"/><path d="M347 231a5 1 62 1 1-2 1 5 1 62 1 1 2-1z"/><path d="M348 231a5 1 73 1 1-2 0 5 1 73 1 1 2 0z"/><path d="M349 236h-2l-2-1a3 3 0 0 0-2 1l1 1 3-1h2l1-1 3-1 1-2a5 5 0 0 0-3 1l-1 2-1 1m2 6a1 5 31 0 1-1-2 1 5 31 0 1 1 2"/><path d="M350 241a1 5 21 0 1-2-1 1 5 21 0 1 2 1m-4-1a5 1 70 0 1-1 2 5 1 70 0 1 1-2"/><path d="M348 240a1 5-5 0 1-2 0 1 5-5 1 1 2 0"/><path d="M349 240a1 5 6 1 1-2 0 1 5 6 1 1 2 0"/><path d="M347 245h-1l-1-2a3 3 0 0 0-3 0l1 1 2 1 2 1 2-1h4v-1a5 5 0 0 0-2 0l-2 1h-2m1 8a1 6 49 1 1-1-2 1 6 49 1 1 1 2"/><path d="M347 252a1 6 38 1 1-1-2 1 6 38 1 1 1 2"/><path d="M344 249a1 6-3 1 1-3 1 1 6-3 1 1 3-1"/><path d="M345 249a1 6 12 0 1-2 0 1 6 12 1 1 2 0"/><path d="M346 250a1 6 22 1 1-2 0 1 6 22 1 1 2 0"/><path d="M343 255a16 16 0 0 1-2-1v-2l-3-1 1 2 2 1 2 1 2 1 4 1c1 0 2 0 1-1a5 5 0 0 0-3-1l-2 1-2-1m-2 8a1 6 80 1 1 0-3 1 6 80 1 1 0 3"/><path d="M341 261a1 6 69 0 1-1-3 1 6 69 0 1 1 3M338 256a1 6 26 0 1-2 0 1 6 26 1 1 2 0"/><path d="M340 257a1 7 42 0 1-2-1 1 7 42 0 1 2 1"/><path d="M340 259a1 7 53 1 1-1-2 1 7 53 0 1 1 2"/><path d="M334 262a18 18 0 0 1 0-3v-1a4 4 0 0 0-2-3v2l1 2 1 3 2 2 3 3h2a6 6 0 0 0-2-3l-3-1-2-1M331 268a2 6 89 0 1 0-3 2 6 89 0 1 0 3"/><path d="M330 263a2 6 38 0 1-3-3 2 6 38 1 1 3 3"/><path d="M331 265a2 6 67 0 1-1-3 2 6 67 0 1 1 3m2-53a4 1 41 0 1-2 1 4 1 41 1 1 2-1m-2 1a4 1 8 0 1 0 2 4 1 8 1 1 0-2"/><path d="M331 212a4 1 27 1 1 0 2 4 1 27 0 1 0-2m-27 50 9 3c5 1 12 7 13 7 2 0 5 0 6-3-3 0-5 2-8 0l-8-5-12-4v2m5-47 6-3-6 2-1 1h1"/><path d="m315 217-8-1 5-7-3 6 6 2"/><path d="M308 216a314 314 0 0 1 5-4l-6 3v1h1"/><path d="m314 217-8-2 4-6-2 6 6 2"/><path d="m307 216 6-2-6 1-1 1h1"/><path d="m313 217-8-1 4-7-2 6 6 2"/><path d="m307 216 4-5-5 4-1 1h2"/><path d="M313 217h-9l4-8-2 7 7 1"/><path d="m306 217 5-4-6 3-1 1h2"/><path d="m312 217-10 1 6-10-3 8 7 1"/><path d="m304 218 7-6-8 4-1 2h2"/><path d="m311 218-9 1 4-10-2 8 7 1"/><path d="m303 219 5-7-6 6v1h1"/><path d="m309 218-9 1 5-9-3 8h7"/><path d="m302 220 7-6-8 4v2h1"/><path d="m309 219-10 2 4-10-1 8h7"/><path d="m301 220 4-8-5 7v2l1-1"/><path d="m309 219-10 3 3-11-1 9 8-1"/><path d="m300 222 6-8-7 6v2h1"/><path d="m308 220-10 3 2-11v9l7-1"/><path d="m299 223 4-9-5 8v2l1-1"/><path d="m306 221-10 3 4-11-1 8h7"/><path d="m298 224 7-7-8 5v2h1"/><path d="m305 222-10 2 4-11-2 9h8"/><path d="m297 223 4-8-5 7v2l1-1"/><path d="m306 221-11 5 2-13v10l9-2"/><path d="m297 225 5-9-7 8v2l2-1"/><path d="m304 223-10 5 2-13v10l8-3"/><path d="m296 227 3-10-5 9v2l2-1"/><path d="m303 223-11 6 2-13v10l9-3"/><path d="m295 228 5-9-7 7v3l2-1"/><path d="m303 223-10 8v-13l2 9 8-4"/><path d="m295 229 1-11-3 10 1 2 1-1"/><path d="m302 224-9 8-1-13 2 9 8-4"/><path d="m294 230 3-10-5 9 1 3 1-2"/><path d="m302 224-9 9-2-13 3 9 8-5"/><path d="m294 232 1-12-3 11 1 2 1-1"/><path d="m301 226-10 8-1-13 3 9 8-4"/><path d="m294 233 3-11-5 10v2l1-1"/><path d="m301 226-9 9-2-13 3 9 8-5"/><path d="m294 233-1-11-2 11 1 2 2-2"/><path d="m300 227-9 9-2-13 3 9 8-5"/><path d="m293 235 1-12-3 11 1 2 1-2"/><path d="m299 227-7 10-4-13 4 9 7-6"/><path d="m293 236-1-12-1 11 1 2 1-2"/><path d="m299 228-7 10-4-13 4 9 7-6"/><path d="m294 237 1-12-3 11v2l2-1"/><path d="m298 229-6 11-5-12 6 8 5-7"/><path d="m293 238-3-11 1 11 2 2v-2"/><path d="m298 230-6 11-5-12 5 8 6-7"/><path d="m293 240-1-12-1 12 1 2 1-2"/><path d="m299 231-7 11-5-12 5 8 7-7"/><path d="m293 241-2-11v11l1 1 1-1"/><path d="m298 233-7 11-5-13 5 8 7-6"/><path d="m292 242 1-12-3 11 1 2 1-1"/><path d="m298 233-6 12-6-12 6 8 6-8"/><path d="m292 243-3-11 1 11 1 2 1-2"/><path d="m297 234-4 13-7-11 7 7 4-9"/><path d="m295 244-4-11 2 11 1 2 1-3"/><path d="m297 235-4 13-7-11 7 7 4-9"/><path d="m295 245-5-9 3 10 2 2v-3"/><path d="m297 236-2 13-9-9 8 5 3-9"/><path d="m295 247-2-11v11l2 2v-2"/><path d="m297 237-1 14-10-9 8 5 3-10"/><path d="m296 248-7-8 5 9 2 1v-2"/><path d="m297 238-1 14-10-8 8 4c2-2 2-7 3-10"/><path d="m296 249-5-9 3 11 2 1v-3"/><path d="m298 240-1 14a117 117 0 0 0-10-8l8 4 2-10"/><path d="m297 251-7-8 5 10h2v-2"/><path d="m298 242-1 13-10-7 8 4 3-10"/><path d="m298 253-5-10 3 11 1 1 1-2"/><path d="M298 243v14a134 134 0 0 0-10-7l9 3 1-10"/><path d="m298 252-8-6 7 8h2l-1-2"/><path d="m298 243 1 14-10-6 8 3 1-11"/><path d="m299 254-7-8 6 10 2 1-1-3"/><path d="m299 245 2 13-11-5 8 2 1-10"/><path d="m301 256-9-6 7 8h2v-2"/><path d="m299 246 3 14-12-4 9 1v-11"/><path d="m302 257-7-8 5 9 2 1v-2"/><path d="m299 247 4 13-11-2h9l-2-11"/><path d="m302 257-10-2 9 4h2l-1-2"/><path d="m300 249 4 12-12-2h9l-1-10"/><path d="m304 258-10-5 9 7h2l-1-2"/><path d="m300 249 6 12h-12l9-2-4-10"/><path d="m305 259-10-3 9 5h2l-1-2"/><path d="m300 251 7 11-12 1 9-3-4-9"/><path d="m306 260-9-6 8 8h2l-1-2"/><path d="M301 252c2 3 5 8 8 10a90 90 0 0 0-12 2l9-3-5-10"/><path d="m307 261-10-1 10 3 1-1-1-2m5-46 7-1h-8l1 1"/><path d="m316 215-7-2 7-3-5 3 5 2"/><path d="m312 214 7-2-7 1-1 1h1"/><path d="m317 216-9-1 6-5-3 4 5 2"/><path d="m310 215 7-1h-8l1 1"/><path d="m315 216-8-1 7-4-4 3 5 2"/><path d="m309 215 6-3-7 2v1h1"/><path d="m315 217-7-3 5-4-3 4 4 3"/><path d="m309 215 5-2-5 1-1 1h1m-4 45h-9l10 2 1-1-2-1"/><path d="m307 260-10-2 10 5 2-1-2-2"/><path d="m309 261-10-1 10 3 2-1-2-1"/><path d="m303 254 9 10-12 3 8-4-5-9"/><path d="m310 261-10-3 10 6 2-1-2-2"/><path d="m303 255 10 9c-3 0-8 2-11 4l8-5-7-8"/><path d="m311 262-9 2h10l1-1-2-1"/><path d="m309 261-10 1 10 2 2-1-2-2"/><path d="m311 262-10-2 10 4h1l-1-2z"/><path d="M313 263h-10l10 2 1-1-1-2z"/><path d="m306 256 10 9-12 4 8-5-6-8z"/><path d="m314 263-10-3 9 5h2l-1-2z"/><path d="m307 257 10 8-10 5 7-6-7-8z"/><path d="m315 263-9 3h10l1-1-2-1z"/></g><path fill="#fedf00" d="m328 250-8-6-8 5 3-8-6-5h8l3-8 3 8h8l-6 5 3 8z"/></svg>