<svg xmlns="http://www.w3.org/2000/svg" xmlns:xlink="http://www.w3.org/1999/xlink" viewBox="0 0 640 480"><defs><clipPath id="a"><rect width="546" height="420" x="2" fill="#00f" fill-rule="evenodd" ry="0"/></clipPath></defs><g clip-path="url(#a)" transform="matrix(1.1722 0 0 1.1426 -2 0)"><path fill="#006400" d="M0 0h840v420H0z"/><path fill="#ffd200" d="M0 60h840v300H0z"/><path fill="#d40000" d="M0 120h840v180H0z"/><path d="M0 180h840v60H0z"/><path stroke="#000" stroke-width="20" d="M0 0v420l280-210z"/><path fill="#fff" d="M0 0v420l280-210z"/><path fill="#d40000" d="m107 104 55 171L17 170h179L51 275z"/><path fill="#fc0" d="m83 254 10-2 18-1 6 1 15 2 1-1v-11l2-9 3-10 4-7 4-8 7 2h1l1-2-15-12-15-11-22-17h-2l-2-17-2-5-2-2-4-2-5 1-2 1-5 1h-2l-2 2v2l7 1h1v1l-4 1h-1l2 2 2 1 3 1v2l1 25-2 4v8l2 9-6 6-3 6-1 4-1 3v2l1 3 4 14 2 11z"/><path d="m88 142-4 1a11 11 0 0 1-5 1c-2 1-4 2-4 5v1h3c11 0 1 1 0 1-2 1 1 3 4 4s3 0 3 15l-1 16v14l1 4-3 4c-4 4-6 8-6 11a6 6 0 0 1-1 3v5c1 2 7 22 7 26h8a129 129 0 0 1 39 1c5 1 5 1 5-4a74 74 0 0 1 5-27 95 95 0 0 1 7-14s2 0 4 1c4 1 5 1 5-1 0-1-4-5-25-21a432 432 0 0 0-26-20l-2-1-1-9-2-11c-2-3-4-5-9-5a31 31 0 0 0-2 0zm0 1h2c7 0 8 2 10 14a173 173 0 0 1 1 9l-3 4a47 47 0 0 0-10 9l-2 2v-16c0-9 0-9-3-10-2-1-5-2-4-3h4l1-1c0-2-2-2-5-2s-4 0-3-1c0-2 2-3 4-3a13 13 0 0 0 4-1 7 7 0 0 1 4-1zm15 26a827 827 0 0 1 50 40l-28-7c-23-7-27-8-28-10a5 5 0 0 1 0-6 5 5 0 0 0 1-2l-3 4 2 6 10 4c9 2 9 2 10 4 1 3-3 7-8 8a15 15 0 0 0-5 2 68 68 0 0 1-17 11l-1 3-2 4v-6l-1 2-1 2v-5l-2 5h-1l1-4a9 9 0 0 0 1-3c0-2 1-3 6-8l8-9c2-2 2-2 2-5v-4c-1 0-2 3-1 5 0 1 0 2-4 6a113 113 0 0 1-7 7c-4 4-5 6-5 8l-1 3-1 3v-3a7 7 0 0 0 0-3c-1-1-1 1-2 3v2-4l1-4 6-10a58 58 0 0 0 3-4l-1-3a25 25 0 0 1 0-14c1-4 4-8 8-12s8-6 10-6zm15 32a1 1 0 0 1 1 1 1 1 0 0 1-2 0 1 1 0 0 1 1-1zm3 0a1 1 0 0 1 1 1 1 1 0 0 1-2 0 1 1 0 0 1 0-1zm2 1a1 1 0 0 1 1 0 1 1 0 0 1-2 0 1 1 0 0 1 1 0zm2 0a1 1 0 0 1 2 1 1 1 0 0 1-2 0 1 1 0 0 1 0-1zm-6 1a1 1 0 0 1 1 1 1 1 0 0 1-1 0 1 1 0 0 1 0-1zm3 0a1 1 0 0 1 1 1 1 1 0 0 1-2 0 1 1 0 0 1 1-1zm5 1a1 1 0 0 1 1 0 1 1 0 0 1-2 0 1 1 0 0 1 1-1zm-3 0a1 1 0 0 1 1 0 1 1 0 0 1-2 0 1 1 0 0 1 1-1zm5 0 8 2 8 2-1 3a96 96 0 0 0-3 4c-1 3-1 3-6 1l-22-3h-8l3-1a50 50 0 0 0 6-3l6-1c4 1 7 0 8-2l1-2zm-9 1a1 1 0 0 1 1 0 1 1 0 0 1-1 0zm6 0a1 1 0 0 1 1 0 1 1 0 0 1-2 0 1 1 0 0 1 1 0zm-8 0a1 1 0 0 1 1 0 1 1 0 0 1-2 0 1 1 0 0 1 1 0zm5 0a1 1 0 0 1 1 0 1 1 0 0 1-1 0zm-6 1a1 1 0 0 1 1 1 1 1 0 0 1-2 0 1 1 0 0 1 1-1zm2 0a1 1 0 0 1 1 1 1 1 0 0 1-2 0 1 1 0 0 1 1-1zm3 0a1 1 0 0 1 1 1 1 1 0 0 1-2 0 1 1 0 0 1 1-1zm3 0a1 1 0 0 1 1 1 1 1 0 0 1-2 0 1 1 0 0 1 1-1zm-21 8a191 191 0 0 1 35 4l-1 6-2 6h-3a213 213 0 0 0-47 0l1-4 1-2 5-3a63 63 0 0 0 10-6h1zm-27 14 2 1 3 1c2 0 4 4 6 16l1 5-3 1-3 1-4-18a97 97 0 0 1-2-6zm29 2h3l-1 1c-2 2-3 3-4 1a5 5 0 0 1-1-1l3-1zm6 0h5l-1 2h-3l-1-2zm8 0h1l3 1h2l-2 1-1 1-2-1-1-2zm9 1h6l-1 2a9 9 0 0 1-2 1l-2-2-1-1zm-31 0h1l-1 2-1 1-2-1-1-2h4zm3 0 1 1 2 2h-6l1-1 2-2zm18 0h1a7 7 0 0 1 1 2l-1 1h-3l-1-1 1-1 2-1zm-9 0 2 1c1 1 1 1-2 1h-3l2-1 1-1zm17 0 2 1v2h-5l2-1 1-2zm-35 1 2 1 1 1-2 1h-4l1-1 2-2zm-3 0-1 2-1 1-1-1 1-2a5 5 0 0 1 2 0zm46 2-2 1 1-1zm-22 1 17 1 4 1c0 2 0 2-5 1l-11-1a150 150 0 0 0-28 1h-3c0-2 10-3 26-3zm-10 3h5l-1 2h-3l-1-2zm7 0 1 2 2 1h-6l1-1 2-2zm2 0h5l-1 2h-3l-1-2zm-13 0-1 2-1 1-2-1-1-1h2a9 9 0 0 0 3-1zm2 1 1 1 2 1h-3l-3 1 2-2 1-1zm17 0 2 1c2 2 1 2-2 1h-2l1-1 2-1zm3 0h2c3 0 3 0 1 2-1 1-1 1-2-1l-1-1zm-31 0v2h-2l2-2zm39 0 2 1h2l-1 1-2 1-1-1-1-2h1zm-36 1 1 1v1a8 8 0 0 1-2 0h-2l1-1 2-1zm34 0 1 1 1 1h-4l1-1 1-1zm6 2-1 1 1-1zm-26 1 24 1 2 1v4l-1 4-5-1a126 126 0 0 0-35-1l-2 1-1-4a21 21 0 0 1 0-4s2 0 5-1h13z"/><path id="b" d="M125 218c-3 0-5 2-5 5 0 5 5 7 8 4s1-9-3-9zm0 1a4 4 0 0 1 4 4c0 3-3 5-6 4-3-2-3-6 0-8a4 4 0 0 1 2 0z"/><use xlink:href="#b" width="100%" height="100%" x="-20" y="-1"/><path d="M88 145a2 2 0 0 0-2 2 2 2 0 1 0 4 0 2 2 0 0 0-2-2zm0 1a1 1 0 0 1 1 1 1 1 0 1 1-2 0 1 1 0 0 1 1-1z"/></g></svg>