<svg width="476" height="476" viewBox="0 0 476 476" fill="none" xmlns="http://www.w3.org/2000/svg">
<circle cx="235.73" cy="249.234" r="162.582" transform="rotate(-34.2243 235.73 249.234)" fill="black" stroke="black"/>
<circle cx="239.347" cy="230.414" r="165.352" transform="rotate(-34.2243 239.347 230.414)" fill="#9BE887" stroke="black"/>
<circle cx="239.362" cy="230.34" r="121.812" transform="rotate(-34.2243 239.362 230.34)" fill="black" stroke="black"/>
<circle cx="237.923" cy="237.895" r="116.376" transform="rotate(-34.2243 237.923 237.895)" fill="#9BE887" stroke="black"/>
<path d="M261.71 225.553C266.3 221.427 268.354 215.762 265.463 208C261.527 197.387 251.192 196.221 239.092 198.319L235.081 183.215L225.919 185.646L229.82 200.355C227.41 200.994 224.965 201.694 222.533 202.393L218.602 187.59L209.449 190.019L213.455 205.121C211.482 205.688 209.544 206.243 207.642 206.748L207.63 206.704L194.993 210.052L197.6 219.87C197.6 219.87 204.332 217.947 204.253 218.1C207.963 217.119 209.748 218.959 210.592 220.733L215.162 237.941L221.577 262.112C221.724 263.327 221.534 265.381 218.941 266.073C219.087 266.146 212.276 267.84 212.276 267.84L213.373 279.302L225.293 276.138C227.515 275.551 229.706 275.007 231.852 274.456L235.914 289.73L245.066 287.304L241.051 272.189C243.583 271.572 246.019 270.949 248.391 270.316L252.382 285.362L261.543 282.931L257.5 267.679C272.664 262.704 282.411 255.949 279.898 241.076C277.877 229.101 271.012 225.339 261.71 225.553ZM225.62 213.143C230.787 211.772 246.598 205.808 249.476 216.642C252.23 227.03 235.664 230.128 230.492 231.5L225.62 213.143ZM238.319 261.01L232.952 240.768C239.159 239.119 258.154 232.16 261.318 244.068C264.351 255.488 244.53 259.356 238.319 261.01Z" fill="black"/>
</svg>
