<svg width="214" height="311" viewBox="0 0 214 311" fill="none" xmlns="http://www.w3.org/2000/svg">
<path d="M19.4238 168.352L81.9638 17.6737C82.2568 16.9679 83.201 16.8382 83.6734 17.4388L189.668 152.18C190.018 152.624 189.93 153.27 189.474 153.604L108.885 212.768C108.584 212.989 108.186 213.024 107.852 212.86L19.9063 169.633C19.4327 169.4 19.2215 168.84 19.4238 168.352Z" fill="black"/>
<path d="M110.108 230.076L25.8341 189.549C24.8543 189.077 23.9325 190.288 24.6471 191.107L118.844 299.099C119.301 299.623 120.139 299.532 120.474 298.923L187.622 176.554C188.137 175.617 187.02 174.636 186.156 175.265L111.131 229.982C110.833 230.2 110.44 230.235 110.108 230.076Z" fill="black"/>
<path d="M19.4238 168.352L81.9638 17.6737C82.2568 16.9679 83.201 16.8382 83.6734 17.4388L189.668 152.18C190.018 152.624 189.93 153.27 189.474 153.604L108.885 212.768C108.584 212.989 108.186 213.024 107.852 212.86L19.9063 169.633C19.4327 169.4 19.2215 168.84 19.4238 168.352Z" stroke="black"/>
<path d="M110.108 230.076L25.8341 189.549C24.8543 189.077 23.9325 190.288 24.6471 191.107L118.844 299.099C119.301 299.623 120.139 299.532 120.474 298.923L187.622 176.554C188.137 175.617 187.02 174.636 186.156 175.265L111.131 229.982C110.833 230.2 110.44 230.235 110.108 230.076Z" stroke="black"/>
<path d="M23.998 164.354L86.5381 13.6756C86.831 12.9699 87.7752 12.8401 88.2476 13.4407L194.242 148.182C194.592 148.626 194.504 149.272 194.048 149.606L113.459 208.77C113.158 208.991 112.76 209.026 112.426 208.862L24.4805 165.635C24.0069 165.402 23.7957 164.842 23.998 164.354Z" fill="#9BE887"/>
<path d="M114.682 226.078L30.4083 185.55C29.4285 185.079 28.5067 186.29 29.2214 187.109L123.418 295.101C123.875 295.625 124.714 295.534 125.048 294.925L192.197 172.556C192.711 171.619 191.594 170.638 190.731 171.267L115.705 225.984C115.407 226.202 115.014 226.237 114.682 226.078Z" fill="#9BE887"/>
<path d="M23.998 164.354L86.5381 13.6756C86.831 12.9699 87.7752 12.8401 88.2476 13.4407L194.242 148.182C194.592 148.626 194.504 149.272 194.048 149.606L113.459 208.77C113.158 208.991 112.76 209.026 112.426 208.862L24.4805 165.635C24.0069 165.402 23.7957 164.842 23.998 164.354Z" stroke="black"/>
<path d="M114.682 226.078L30.4083 185.55C29.4285 185.079 28.5067 186.29 29.2214 187.109L123.418 295.101C123.875 295.625 124.714 295.534 125.048 294.925L192.197 172.556C192.711 171.619 191.594 170.638 190.731 171.267L115.705 225.984C115.407 226.202 115.014 226.237 114.682 226.078Z" stroke="black"/>
<path d="M25.3318 165.165L101.571 126.646L193.249 149.495" stroke="black"/>
<path d="M114.883 226.034L123.847 294.548" stroke="black"/>
<path d="M86.8164 13.8481L112.177 207.692" stroke="black"/>
</svg>
