<svg width="159" height="201" viewBox="0 0 159 201" fill="none" xmlns="http://www.w3.org/2000/svg">
<path d="M128.505 64.3768L128.505 64.3773L125.914 77.5023L125.818 77.9923L126.308 78.0895L143.371 81.4764L125.459 171.715L60.3046 187.104L6.00433 148.004L23.997 57.3579L41.06 60.7448L41.5505 60.8422L41.6478 60.3517L44.1716 47.6372C48.4255 26.2061 70.958 12.1179 94.1392 16.7192C117.32 21.3204 132.761 42.9366 128.505 64.3768ZM104.631 73.3633L105.122 73.4606L105.219 72.9702L107.743 60.2556C109.842 49.6799 102.024 39.4302 90.101 37.0635C78.178 34.6969 67.0378 41.1835 64.9386 51.7593L62.4148 64.4738L62.3175 64.9643L62.8079 65.0616L104.631 73.3633ZM104.676 153.038L104.989 152.964L105.051 152.649L115.959 97.6958L116.056 97.2054L115.566 97.108L43.615 82.8263L43.1245 82.729L43.0272 83.2194L32.1168 138.186L32.0542 138.501L32.3151 138.689L65.0303 162.231L65.2154 162.364L65.4374 162.311L104.676 153.038Z" fill="black" stroke="black"/>
<path d="M132.931 61.4149L132.931 61.4154L130.34 74.5404L130.243 75.0304L130.733 75.1276L147.796 78.5145L129.885 168.753L64.7304 184.142L10.4301 145.042L28.4228 54.396L45.4858 57.7829L45.9763 57.8802L46.0736 57.3898L48.5973 44.6753C52.8513 23.2441 75.3838 9.15594 98.565 13.7572C121.746 18.3585 137.187 39.9747 132.931 61.4149ZM109.057 70.4013L109.548 70.4987L109.645 70.0083L112.169 57.2937C114.268 46.7179 106.45 36.4683 94.5268 34.1016C82.6038 31.735 71.4636 38.2216 69.3643 48.7974L66.8406 61.5119L66.7433 62.0023L67.2337 62.0997L109.057 70.4013ZM109.101 150.076L109.414 150.002L109.477 149.687L120.385 94.7339L120.482 94.2435L119.992 94.1461L48.0407 79.8644L47.5503 79.7671L47.453 80.2575L36.5425 135.224L36.4799 135.539L36.7409 135.727L69.4561 159.269L69.6412 159.402L69.8632 159.349L109.101 150.076Z" fill="#9BE887" stroke="black"/>
</svg>
