<svg width="246" height="325" viewBox="0 0 246 325" fill="none" xmlns="http://www.w3.org/2000/svg">
<path d="M10.3079 69.5226L18.3177 53.0347L56.6831 171.579L55.242 178.694L46.8205 191.837C35.4068 156.174 12.1537 83.7709 10.4513 79.4601C8.74891 75.1493 9.6464 71.039 10.3079 69.5226Z" fill="black" stroke="#141414"/>
<path d="M64.4816 233.445C57.6096 221.343 51.589 204.479 46.5431 191.062L56.8922 173.578C61.0774 186.509 73.1052 216.973 87.7347 235.372C106.022 258.37 131.568 286.248 140.243 289.121C148.918 291.993 173.737 293.8 166.215 296.03C127.236 308.645 116.777 296.505 115.143 294.759C87.6276 265.356 71.3535 245.548 64.4816 233.445Z" fill="black" stroke="#141414"/>
<path d="M35.4587 43.1583L138.5 9.81054C142.418 8.54254 148.294 6.64062 154.518 9.82054C159.496 12.3645 161.578 16.4805 161.997 18.2205L198.895 132.232L204.855 150.646C212.463 174.153 212.622 190.694 211.75 196.025C210.477 212.596 207.66 249.721 206.583 265.651C205.506 281.582 193.333 287.253 185.797 289.692L159.938 298.06C141.132 304.147 131.469 296.607 126.657 291.518C113.151 277.233 91.4682 251.719 81.2838 238.249C72.3984 226.497 63.2425 206.576 60.6757 197.307L54.7163 178.893L17.8182 64.882C16.9306 62.1395 15.7549 59.5767 17.7826 54.0729C19.955 48.1759 25.2721 46.455 35.4587 43.1583Z" fill="#9BE887" stroke="#141414"/>
<path d="M54.6016 178.5L198.781 131.838" stroke="#141414"/>
<path d="M75.7478 196.758C74.3623 192.477 76.7097 187.883 80.9909 186.498L131.84 170.041L136.857 185.545L86.0085 202.001C81.7273 203.387 77.1334 201.039 75.7478 196.758Z" stroke="#141414"/>
<path d="M193.123 158.773C194.509 163.054 192.161 167.648 187.88 169.033L137.031 185.49L132.014 169.986L182.863 153.529C187.144 152.144 191.738 154.491 193.123 158.773Z" stroke="#141414"/>
<g clip-path="url(#clip0_10316_19837)">
<g clip-path="url(#clip1_10316_19837)">
<path d="M134.906 76.0412C140.988 94.8359 118.045 119.068 117.061 120.08C116.803 120.35 116.482 120.551 116.127 120.666C115.771 120.781 115.393 120.806 115.026 120.739C113.636 120.495 80.8452 114.3 74.7625 95.5057C73.3391 91.0906 73.7252 86.2912 75.836 82.1604C77.9468 78.0296 81.6099 74.9047 86.0218 73.4714C91.5663 71.677 97.1923 72.4902 101.523 75.541C103.244 70.5316 107.327 66.5763 112.871 64.7819C117.287 63.3585 122.086 63.7445 126.217 65.8553C130.348 67.9661 133.472 71.6293 134.906 76.0412Z" fill="black"/>
</g>
</g>
<defs>
<clipPath id="clip0_10316_19837">
<rect width="92.7361" height="92.7361" fill="white" transform="translate(64.1797 45.3105) rotate(-2.93343)"/>
</clipPath>
<clipPath id="clip1_10316_19837">
<rect width="72.2452" height="72.2452" fill="white" transform="translate(62.2969 71.6572) rotate(-17.9334)"/>
</clipPath>
</defs>
</svg>
